<?xml version="1.0" encoding="UTF-8" standalone="no"?>
<!-- Generator: Adobe Illustrator 16.0.0, SVG Export Plug-In . SVG Version: 6.00 Build 0)  -->

<svg
   version="1.1"
   id="Capa_1"
   x="0px"
   y="0px"
   width="400px"
   height="400px"
   viewBox="0 0 400 400"
   style="enable-background:new 0 0 400 400;"
   xml:space="preserve"
   sodipodi:docname="round-done-button-svgrepo-com.svg"
   inkscape:version="1.1.2 (08b2f3d93c, 2022-04-05)"
   xmlns:inkscape="http://www.inkscape.org/namespaces/inkscape"
   xmlns:sodipodi="http://sodipodi.sourceforge.net/DTD/sodipodi-0.dtd"
   xmlns="http://www.w3.org/2000/svg"
   xmlns:svg="http://www.w3.org/2000/svg"><defs
   id="defs11088" /><sodipodi:namedview
   id="namedview11086"
   pagecolor="#ffffff"
   bordercolor="#999999"
   borderopacity="1"
   inkscape:pageshadow="0"
   inkscape:pageopacity="0"
   inkscape:pagecheckerboard="0"
   showgrid="false"
   inkscape:zoom="2.23"
   inkscape:cx="200.22422"
   inkscape:cy="200"
   inkscape:window-width="1870"
   inkscape:window-height="1149"
   inkscape:window-x="50"
   inkscape:window-y="27"
   inkscape:window-maximized="1"
   inkscape:current-layer="g11051" />
<g
   id="g11053">
	<g
   id="g11051">
		<path
   d="M199.996,0C89.713,0,0,89.72,0,200s89.713,200,199.996,200S400,310.28,400,200S310.279,0,199.996,0z M199.996,373.77    C104.18,373.77,26.23,295.816,26.23,200c0-95.817,77.949-173.769,173.766-173.769c95.817,0,173.771,77.953,173.771,173.769    C373.768,295.816,295.812,373.77,199.996,373.77z"
   id="path11047"
   style="fill:#9ea80a;fill-opacity:1" />
		<path
   d="M272.406,134.526L169.275,237.652l-41.689-41.68c-5.123-5.117-13.422-5.12-18.545,0.003    c-5.125,5.125-5.125,13.425,0,18.548l50.963,50.955c2.561,2.558,5.916,3.838,9.271,3.838s6.719-1.28,9.279-3.842    c0.008-0.011,0.014-0.022,0.027-0.035L290.95,153.071c5.125-5.12,5.125-13.426,0-18.546    C285.828,129.402,277.523,129.402,272.406,134.526z"
   id="path11049"
   style="fill:#9ea80a;fill-opacity:1" />
	</g>
</g>
<g
   id="g11055">
</g>
<g
   id="g11057">
</g>
<g
   id="g11059">
</g>
<g
   id="g11061">
</g>
<g
   id="g11063">
</g>
<g
   id="g11065">
</g>
<g
   id="g11067">
</g>
<g
   id="g11069">
</g>
<g
   id="g11071">
</g>
<g
   id="g11073">
</g>
<g
   id="g11075">
</g>
<g
   id="g11077">
</g>
<g
   id="g11079">
</g>
<g
   id="g11081">
</g>
<g
   id="g11083">
</g>
</svg>
