<?xml version="1.0" encoding="UTF-8" standalone="no"?><!DOCTYPE svg PUBLIC "-//W3C//DTD SVG 1.1//EN" "http://www.w3.org/Graphics/SVG/1.1/DTD/svg11.dtd"><svg width="100%" height="100%" viewBox="0 0 1092 445" version="1.1" xmlns="http://www.w3.org/2000/svg" xmlns:xlink="http://www.w3.org/1999/xlink" xml:space="preserve" xmlns:serif="http://www.serif.com/" style="fill-rule:evenodd;clip-rule:evenodd;stroke-linejoin:round;stroke-miterlimit:2;"><g id="xauth"><rect x="0" y="0" width="242.111" height="444.699" style="fill:#0259a8;"/><g><path d="M425.83,398.821c-4.369,0 -9.159,-1.344 -14.369,-4.033c-5.211,-2.689 -9.664,-6.387 -13.362,-11.093c-7.731,10.084 -17.983,15.126 -30.756,15.126l-34.791,0c-25.546,0 -44.118,-5.126 -55.714,-15.378c-11.597,-10.252 -17.395,-27.815 -17.395,-52.689l-0,-10.084c-0,-52.102 24.538,-78.152 73.614,-78.152l52.437,-0l0,-25.211c0,-10.42 -3.193,-18.487 -9.58,-24.202c-6.387,-5.714 -15.798,-8.571 -28.235,-8.571l-68.068,-0l-0,-37.815l63.026,-0c29.243,-0 50.84,6.386 64.79,19.159c13.95,12.774 20.925,33.278 20.925,61.513l-0,121.01c-0,5.042 1.932,8.823 5.798,11.344c3.865,2.522 10.336,3.782 19.412,3.782l-0,35.294l-27.732,0Zm-63.529,-37.815c10.084,0 16.47,-2.353 19.159,-7.059c2.689,-4.706 4.034,-10.756 4.034,-18.151l0,-55.463l-52.942,0c-8.739,0 -15.966,2.857 -21.68,8.572c-5.715,5.714 -8.572,12.941 -8.572,21.68l0,25.211c0,8.739 2.017,15.126 6.051,19.16c4.033,4.033 10.42,6.05 19.159,6.05l34.791,0Z" style="fill:#f50b00;fill-rule:nonzero;"/><path d="M639.614,387.225c-11.093,7.731 -24.538,11.596 -40.337,11.596l-7.059,0c-27.227,0 -47.479,-6.386 -60.756,-19.159c-13.278,-12.774 -19.917,-33.278 -19.917,-61.513l0,-171.43l42.858,-0l-0,181.514c-0,10.084 2.941,18.067 8.824,23.949c5.882,5.883 13.865,8.824 23.949,8.824l17.143,0c10.757,0 18.74,-2.689 23.95,-8.067c5.21,-5.378 8.151,-11.429 8.824,-18.152l-0,-188.068l42.857,-0l0,252.102l-40.336,0l-0,-11.596Z" style="fill:#f50b00;fill-rule:nonzero;"/><path d="M816.086,398.821c-17.143,0 -30.253,-5.546 -39.328,-16.638c-9.076,-11.093 -13.614,-25.715 -13.614,-43.866l0,-153.783l-32.773,-0l-0,-37.815l32.773,-0l0,-60.505l42.858,-0l-0,60.505l58.488,-0l-0,37.815l-58.488,-0l-0,156.304c-0,7.395 1.848,12.605 5.546,15.63c3.697,3.025 9.412,4.538 17.143,4.538l35.799,0l-0,37.815l-48.404,0Z" style="fill:#f50b00;fill-rule:nonzero;"/><path d="M917.431,45.877l42.858,0l-0,110.926c10.084,-6.723 22.689,-10.084 37.815,-10.084l13.109,-0c27.228,-0 47.48,6.386 60.757,19.159c13.278,12.774 19.916,33.278 19.916,61.513l0,171.43l-42.857,0l-0,-181.514c-0,-10.084 -2.941,-18.067 -8.824,-23.949c-5.882,-5.883 -13.865,-8.824 -23.949,-8.824l-23.194,-0c-10.756,-0 -18.908,2.773 -24.454,8.319c-5.546,5.547 -8.319,11.513 -8.319,17.9l-0,188.068l-42.858,0l0,-352.944Z" style="fill:#f50b00;fill-rule:nonzero;"/></g><g id="x-v2"><path id="_-" serif:id="&gt;" d="M144.753,268.624l-67.573,-121.905l-47.396,-0l67.574,121.905l-72.17,130.197l47.396,0l72.169,-130.197Z" style="fill:#fff;"/><path d="M159.598,241.843l-23.697,-42.752l29.03,-52.372l47.396,-0l-52.729,95.124Z" style="fill:#fff;"/><path d="M135.901,338.157l23.697,-42.751l57.325,103.415l-47.396,0l-33.626,-60.664Z" style="fill:#fff;"/></g></g></svg>